<svg width="31" height="10" viewBox="0 0 31 10" fill="none" xmlns="http://www.w3.org/2000/svg">
<path d="M0.408 0.504C0.608 0.512 0.876 0.52 1.212 0.528C1.556 0.536 1.896 0.539999 2.232 0.539999C2.616 0.539999 2.988 0.536 3.348 0.528C3.708 0.52 3.964 0.516 4.116 0.516C5.228 0.516 6.06 0.736 6.612 1.176C7.164 1.616 7.44 2.184 7.44 2.88C7.44 3.168 7.384 3.472 7.272 3.792C7.16 4.104 6.968 4.396 6.696 4.668C6.432 4.932 6.068 5.148 5.604 5.316C5.14 5.484 4.556 5.568 3.852 5.568H2.628V5.328H3.732C4.204 5.328 4.56 5.22 4.8 5.004C5.048 4.788 5.216 4.504 5.304 4.152C5.4 3.8 5.448 3.42 5.448 3.012C5.448 2.252 5.336 1.684 5.112 1.308C4.888 0.932 4.504 0.744 3.96 0.744C3.648 0.744 3.444 0.812 3.348 0.948C3.26 1.084 3.216 1.36 3.216 1.776V7.656C3.216 7.968 3.248 8.2 3.312 8.352C3.376 8.504 3.5 8.604 3.684 8.652C3.868 8.7 4.14 8.728 4.5 8.736V9C4.252 8.992 3.932 8.984 3.54 8.976C3.148 8.968 2.736 8.964 2.304 8.964C1.96 8.964 1.624 8.968 1.296 8.976C0.968 8.984 0.672 8.992 0.408 9V8.76C0.664 8.744 0.856 8.712 0.984 8.664C1.112 8.616 1.196 8.52 1.236 8.376C1.284 8.232 1.308 8.016 1.308 7.728V1.776C1.308 1.48 1.284 1.264 1.236 1.128C1.196 0.984 1.108 0.888 0.972 0.84C0.844 0.784 0.656 0.752 0.408 0.744V0.504ZM14.1202 0.48C14.4322 0.48 14.6842 0.503999 14.8762 0.551999C15.0682 0.591999 15.2322 0.651999 15.3682 0.732C15.4962 0.788 15.6122 0.86 15.7162 0.948C15.8282 1.036 15.9202 1.144 15.9922 1.272C16.0642 1.4 16.1002 1.544 16.1002 1.704C16.1002 1.944 16.0082 2.136 15.8242 2.28C15.6402 2.424 15.4242 2.496 15.1762 2.496C14.9362 2.496 14.7282 2.436 14.5522 2.316C14.3842 2.196 14.3002 2.008 14.3002 1.752C14.3002 1.552 14.3722 1.372 14.5162 1.212C14.6602 1.044 14.8442 0.94 15.0682 0.9C15.0122 0.836 14.9082 0.784 14.7562 0.744C14.6122 0.704 14.4522 0.684 14.2762 0.684C13.8602 0.684 13.5042 0.816 13.2082 1.08C12.9202 1.336 12.7762 1.728 12.7762 2.256C12.7762 2.44 12.8082 2.636 12.8722 2.844C12.9362 3.052 13.0602 3.264 13.2442 3.48C13.3802 3.448 13.5042 3.424 13.6162 3.408C13.7362 3.392 13.8362 3.384 13.9162 3.384C14.0602 3.384 14.1682 3.416 14.2402 3.48C14.3202 3.536 14.3602 3.612 14.3602 3.708C14.3602 3.78 14.3282 3.84 14.2642 3.888C14.2002 3.936 14.1202 3.96 14.0242 3.96C13.8882 3.96 13.7482 3.924 13.6042 3.852C13.4602 3.772 13.3442 3.704 13.2562 3.648C12.8802 3.84 12.5722 4.088 12.3322 4.392C12.1002 4.688 11.9842 5.088 11.9842 5.592C11.9842 6.12 12.1282 6.556 12.4162 6.9C12.7042 7.236 13.1082 7.492 13.6282 7.668C14.1562 7.836 14.7762 7.92 15.4882 7.92C15.8882 7.92 16.2842 7.876 16.6762 7.788C17.0682 7.7 17.4202 7.568 17.7322 7.392C18.0522 7.216 18.3082 7 18.5002 6.744C18.6922 6.48 18.7882 6.176 18.7882 5.832C18.7882 5.704 18.7682 5.544 18.7282 5.352C18.6962 5.152 18.6122 4.956 18.4762 4.764C18.3402 4.564 18.1162 4.4 17.8042 4.272L17.8882 4.164C18.3202 4.3 18.6482 4.556 18.8722 4.932C19.0962 5.308 19.2082 5.74 19.2082 6.228C19.2082 6.788 19.0362 7.292 18.6922 7.74C18.3482 8.18 17.8642 8.528 17.2402 8.784C16.6242 9.04 15.9002 9.168 15.0682 9.168C14.4042 9.168 13.8002 9.1 13.2562 8.964C12.7202 8.828 12.2562 8.632 11.8642 8.376C11.4802 8.112 11.1802 7.796 10.9642 7.428C10.7562 7.06 10.6522 6.644 10.6522 6.18C10.6522 5.732 10.7442 5.352 10.9282 5.04C11.1202 4.72 11.3522 4.46 11.6242 4.26C11.8962 4.052 12.1682 3.892 12.4402 3.78C12.7122 3.668 12.9282 3.592 13.0882 3.552C12.8402 3.448 12.6122 3.328 12.4042 3.192C12.2042 3.048 12.0402 2.88 11.9122 2.688C11.7922 2.496 11.7322 2.28 11.7322 2.04C11.7322 1.784 11.8002 1.56 11.9362 1.368C12.0722 1.168 12.2522 1.004 12.4762 0.875999C12.7082 0.748 12.9642 0.652 13.2442 0.588C13.5322 0.516 13.8242 0.48 14.1202 0.48ZM18.8362 0.335999C19.4042 0.335999 19.8642 0.483999 20.2162 0.779999C20.5682 1.076 20.7442 1.492 20.7442 2.028C20.7442 2.436 20.6442 2.78 20.4442 3.06C20.2522 3.34 19.9722 3.568 19.6042 3.744C19.2442 3.92 18.8122 4.06 18.3082 4.164C18.1962 4.204 18.0562 4.252 17.8882 4.308C17.7202 4.356 17.5482 4.404 17.3722 4.452C17.1962 4.5 17.0242 4.548 16.8562 4.596C16.6962 4.644 16.5562 4.684 16.4362 4.716C15.8122 4.852 15.3322 5.008 14.9962 5.184C14.6602 5.352 14.4922 5.584 14.4922 5.88C14.4922 6.08 14.5562 6.252 14.6842 6.396C14.8202 6.54 14.9882 6.652 15.1882 6.732C15.3882 6.812 15.5882 6.852 15.7882 6.852C15.8442 6.852 15.9042 6.848 15.9682 6.84C16.0322 6.824 16.0922 6.808 16.1482 6.792C16.2042 6.768 16.2442 6.748 16.2682 6.732C16.0682 6.668 15.9162 6.568 15.8122 6.432C15.7162 6.288 15.6682 6.124 15.6682 5.94C15.6682 5.684 15.7602 5.488 15.9442 5.352C16.1282 5.216 16.3562 5.148 16.6282 5.148C16.9162 5.148 17.1402 5.224 17.3002 5.376C17.4682 5.528 17.5522 5.724 17.5522 5.964C17.5522 6.212 17.4762 6.42 17.3242 6.588C17.1722 6.748 16.9682 6.868 16.7122 6.948C16.4562 7.02 16.1682 7.056 15.8482 7.056C15.5362 7.056 15.2402 7 14.9602 6.888C14.6882 6.776 14.4682 6.608 14.3002 6.384C14.1402 6.152 14.0602 5.864 14.0602 5.52C14.0602 5.096 14.1682 4.744 14.3842 4.464C14.6002 4.176 14.9082 3.94 15.3082 3.756C15.7162 3.564 16.1962 3.416 16.7482 3.312C16.9162 3.272 17.1002 3.228 17.3002 3.18C17.5082 3.124 17.7202 3.068 17.9362 3.012C18.1522 2.956 18.3522 2.896 18.5362 2.832C19.1122 2.688 19.5562 2.528 19.8682 2.352C20.1882 2.176 20.3482 1.94 20.3482 1.644C20.3482 1.428 20.2802 1.24 20.1442 1.08C20.0162 0.911999 19.8482 0.783999 19.6402 0.696C19.4322 0.599999 19.2162 0.551999 18.9922 0.551999C18.9202 0.551999 18.8522 0.556 18.7882 0.564C18.7322 0.572 18.6842 0.588 18.6442 0.611999C18.8442 0.683999 18.9922 0.791999 19.0882 0.935999C19.1842 1.08 19.2322 1.224 19.2322 1.368C19.2322 1.616 19.1402 1.808 18.9562 1.944C18.7722 2.072 18.5442 2.136 18.2722 2.136C18.0002 2.136 17.7762 2.068 17.6002 1.932C17.4242 1.788 17.3362 1.592 17.3362 1.344C17.3362 1.128 17.3962 0.948 17.5162 0.804C17.6442 0.652 17.8202 0.536 18.0442 0.456C18.2682 0.375999 18.5322 0.335999 18.8362 0.335999ZM30.5702 0.504C30.5382 0.864 30.5142 1.212 30.4982 1.548C30.4902 1.884 30.4862 2.144 30.4862 2.328C30.4862 2.504 30.4902 2.672 30.4982 2.832C30.5062 2.992 30.5142 3.128 30.5222 3.24H30.2462C30.1422 2.616 29.9982 2.128 29.8142 1.776C29.6302 1.416 29.4022 1.16 29.1302 1.008C28.8662 0.855999 28.5502 0.779999 28.1822 0.779999H27.7862C27.5542 0.779999 27.3782 0.799999 27.2582 0.84C27.1382 0.88 27.0582 0.96 27.0182 1.08C26.9782 1.2 26.9582 1.384 26.9582 1.632V7.656C26.9582 7.968 26.9902 8.2 27.0542 8.352C27.1182 8.504 27.2422 8.604 27.4262 8.652C27.6102 8.7 27.8822 8.728 28.2422 8.736V9C27.9942 8.992 27.6742 8.984 27.2822 8.976C26.8902 8.968 26.4782 8.964 26.0462 8.964C25.7022 8.964 25.3662 8.968 25.0382 8.976C24.7102 8.984 24.4142 8.992 24.1502 9V8.76C24.4062 8.744 24.5982 8.712 24.7262 8.664C24.8542 8.616 24.9382 8.52 24.9782 8.376C25.0262 8.232 25.0502 8.016 25.0502 7.728V1.776C25.0502 1.48 25.0262 1.264 24.9782 1.128C24.9382 0.984 24.8502 0.888 24.7142 0.84C24.5862 0.784 24.3982 0.752 24.1502 0.744V0.504C24.4782 0.512 24.8262 0.52 25.1942 0.528C25.5622 0.528 25.9262 0.532 26.2862 0.539999C26.6462 0.539999 26.9822 0.539999 27.2942 0.539999C27.6062 0.539999 27.8622 0.539999 28.0622 0.539999C28.4302 0.539999 28.8462 0.539999 29.3102 0.539999C29.7822 0.532 30.2022 0.52 30.5702 0.504ZM28.7822 4.656C28.7822 4.656 28.7822 4.696 28.7822 4.776C28.7822 4.856 28.7822 4.896 28.7822 4.896H26.5982C26.5982 4.896 26.5982 4.856 26.5982 4.776C26.5982 4.696 26.5982 4.656 26.5982 4.656H28.7822ZM29.0822 3.072C29.0502 3.528 29.0342 3.876 29.0342 4.116C29.0422 4.356 29.0462 4.576 29.0462 4.776C29.0462 4.976 29.0502 5.196 29.0582 5.436C29.0662 5.676 29.0862 6.024 29.1182 6.48H28.8422C28.7942 6.2 28.7182 5.94 28.6142 5.7C28.5102 5.46 28.3582 5.268 28.1582 5.124C27.9582 4.972 27.6982 4.896 27.3782 4.896V4.656C27.6182 4.656 27.8182 4.608 27.9782 4.512C28.1462 4.408 28.2862 4.276 28.3982 4.116C28.5102 3.948 28.5982 3.772 28.6622 3.588C28.7262 3.404 28.7742 3.232 28.8062 3.072H29.0822Z" fill="#D4A574"/>
</svg>
